{"glyphs":{":":{"x_min":0,"x_max":278,"ha":278,"o":"m 145 418 l 166 519 l 265 519 l 245 418 z m 57 0 l 78 100 l 178 100 l 157 0 z"},"$":{"x_min":0,"x_max":556,"ha":556,"o":"m 222 -6 q 150 8 103 66 q 56 124 51 207 l 140 212 q 145 154 171 117 q 197 81 237 66 l 293 336 q 236 361 210 382 q 174 411 155 450 q 136 489 136 530 q 136 607 199 667 q 262 726 355 726 q 358 726 375 726 l 382 764 l 431 764 l 422 719 q 488 703 526 659 q 564 615 573 543 l 488 539 q 481 582 462 608 q 443 634 407 646 l 355 401 q 454 360 491 312 q 528 265 528 206 q 528 150 495 95 q 462 39 408 13 q 354 -13 283 -13 q 278 -13 269 -12 l 251 -96 l 203 -96 z m 311 420 l 360 655 q 322 656 290 641 q 258 626 240 598 q 223 570 223 536 q 223 499 241 472 q 259 445 311 420 z m 338 317 l 284 58 q 350 56 395 97 q 439 139 439 197 q 439 235 419 263 q 398 291 338 317 z"},"?":{"x_min":0,"x_max":556,"ha":556,"o":"m 209 179 q 214 224 229 258 q 245 292 276 329 q 295 349 364 405 q 433 461 453 495 q 473 530 473 559 q 473 598 441 628 q 408 657 357 657 q 301 657 264 622 q 228 587 215 505 l 127 520 q 148 625 208 676 q 269 728 354 728 q 414 728 462 704 q 511 680 536 639 q 561 597 561 553 q 561 499 524 449 q 498 412 404 337 q 340 286 320 256 q 301 227 293 179 z m 166 0 l 187 100 l 287 100 l 266 0 z"},"<":{"x_min":0,"x_max":584,"ha":584,"o":"m 90 313 l 90 395 l 564 595 l 564 508 l 188 354 l 564 198 l 564 110 z"},"'":{"x_min":0,"x_max":191,"ha":191,"o":"m 127 462 l 133 596 l 158 716 l 259 716 l 233 596 l 182 462 z"},"=":{"x_min":0,"x_max":584,"ha":584,"o":"m 562 421 l 90 421 l 90 503 l 562 503 z m 562 204 l 90 204 l 90 286 l 562 286 z"},"a":{"x_min":0,"x_max":556,"ha":556,"o":"m 383 64 q 337 25 294 7 q 252 -12 204 -12 q 132 -12 88 31 q 44 73 44 139 q 44 182 64 216 q 83 249 116 269 q 149 290 196 298 q 226 304 309 308 q 393 311 429 325 q 439 361 439 385 q 439 416 417 434 q 386 458 327 458 q 271 458 236 433 q 200 409 184 363 l 95 371 q 122 448 181 489 q 241 530 331 530 q 427 530 483 484 q 526 450 526 396 q 526 354 514 299 l 485 170 q 472 109 472 70 q 472 46 482 0 l 393 0 q 386 25 383 64 z m 416 263 q 397 255 376 251 q 354 248 305 243 q 228 236 196 226 q 164 215 148 192 q 132 169 132 142 q 132 104 157 81 q 183 57 230 57 q 274 57 315 80 q 355 103 379 145 q 402 186 416 263 z"},"L":{"x_min":0,"x_max":556,"ha":556,"o":"m 40 0 l 189 716 l 285 716 l 153 81 l 524 81 l 507 0 z"},"3":{"x_min":0,"x_max":556,"ha":556,"o":"m 55 188 l 141 198 q 150 123 184 91 q 217 58 271 58 q 337 58 385 105 q 432 152 432 212 q 432 265 396 300 q 361 334 301 334 q 294 334 272 332 l 288 406 q 300 404 312 404 q 388 404 428 441 q 469 478 469 531 q 469 581 436 614 q 402 648 354 648 q 307 648 269 614 q 231 579 220 516 l 133 534 q 155 622 216 670 q 277 719 360 719 q 448 719 503 666 q 557 612 557 535 q 557 478 528 436 q 498 394 439 366 q 481 341 502 306 q 522 271 522 225 q 522 129 450 58 q 378 -12 278 -12 q 181 -12 121 42 q 62 97 55 188 z"},";":{"x_min":0,"x_max":278,"ha":278,"o":"m 142 418 l 163 519 l 262 519 l 241 418 z m 54 0 l 75 100 l 176 100 l 158 13 q 141 -66 106 -103 q 71 -139 24 -145 l 32 -106 q 90 -90 109 0 z"},"J":{"x_min":0,"x_max":500,"ha":500,"o":"m 41 208 l 129 215 q 122 173 122 154 q 122 114 146 91 q 171 67 215 67 q 247 67 271 81 q 295 96 310 126 q 322 149 334 208 l 440 716 l 536 716 l 427 193 q 404 83 350 35 q 296 -12 213 -12 q 124 -12 79 29 q 33 70 33 144 q 33 177 41 208 z"},"V":{"x_min":0,"x_max":667,"ha":667,"o":"m 262 0 l 124 716 l 216 716 l 299 289 q 322 173 329 102 q 374 193 403 247 l 658 716 l 757 716 l 364 0 z"},"\"":{"x_min":0,"x_max":355,"ha":355,"o":""},"7":{"x_min":0,"x_max":556,"ha":556,"o":"m 145 0 q 157 72 195 174 q 240 296 314 417 q 388 538 478 625 l 121 625 l 138 706 l 595 706 l 579 625 q 462 523 375 362 q 274 176 237 0 z"},"S":{"x_min":0,"x_max":667,"ha":667,"o":"m 70 231 l 164 240 l 163 215 q 163 174 182 139 q 201 105 245 86 q 289 67 350 67 q 436 67 481 105 q 526 143 526 191 q 526 225 502 252 q 478 280 369 327 q 284 363 253 383 q 205 415 182 452 q 159 489 159 537 q 159 592 189 637 q 220 681 278 705 q 336 728 410 728 q 497 728 557 699 q 617 669 644 621 q 671 572 671 527 q 671 523 671 513 l 579 505 q 579 536 573 553 q 563 583 543 603 q 522 624 487 636 q 451 648 406 648 q 328 648 285 613 q 251 586 251 542 q 251 516 265 495 q 279 474 314 454 q 340 440 435 398 q 512 364 542 344 q 581 318 602 281 q 623 245 623 198 q 623 140 587 91 q 552 42 489 15 q 427 -12 346 -12 q 225 -12 148 41 q 71 94 70 231 z"},"}":{"x_min":0,"x_max":334,"ha":334,"o":"m 309 299 l 292 219 q 255 218 227 199 q 199 180 183 146 q 167 112 150 30 q 132 -52 123 -79 q 109 -121 91 -146 q 72 -171 51 -185 q 30 -199 0 -207 q -17 -210 -57 -210 l -84 -210 l -67 -134 l -52 -134 q -11 -134 8 -124 q 26 -113 37 -89 q 45 -71 61 3 q 81 95 95 131 q 114 181 144 211 q 174 241 219 259 q 181 279 166 304 q 150 330 150 376 q 150 414 172 515 q 188 586 188 605 q 188 630 175 641 q 161 651 118 651 l 103 651 l 120 728 l 146 728 q 192 728 211 722 q 240 712 256 689 q 271 666 271 627 q 271 595 255 519 q 232 406 232 379 q 232 340 251 320 q 271 300 309 299 z"},"Z":{"x_min":0,"x_max":611,"ha":611,"o":"m 24 0 l 34 72 l 392 500 l 466 590 q 489 617 510 640 q 464 635 446 635 l 423 635 l 395 635 l 367 634 l 126 634 l 143 716 l 637 716 l 628 641 l 244 185 q 173 100 154 79 q 176 82 182 82 l 572 82 l 555 0 z"},"x":{"x_min":0,"x_max":500,"ha":500,"o":"m -1 0 l 224 263 l 95 519 l 192 519 l 236 426 q 261 375 280 327 l 430 519 l 538 519 l 320 256 l 451 0 l 353 0 l 301 105 q 285 139 264 189 l 109 0 z"},")":{"x_min":0,"x_max":333,"ha":333,"o":"m 198 728 q 275 560 275 383 q 275 265 244 163 q 213 62 150 -39 q 107 -105 16 -210 l -53 -210 q 3 -149 67 -38 q 131 73 160 179 q 188 286 188 395 q 188 556 132 728 z"},"&":{"x_min":0,"x_max":667,"ha":667,"o":"m 496 70 q 435 20 392 2 q 348 -16 295 -16 q 198 -16 138 42 q 79 99 79 186 q 79 243 101 286 q 123 330 167 365 q 201 391 267 421 q 241 477 236 496 q 229 523 229 555 q 229 596 252 638 q 275 680 317 704 q 359 728 408 728 q 477 728 519 688 q 562 648 562 591 q 562 542 525 495 q 489 447 383 394 q 447 278 506 204 q 542 248 574 306 l 651 267 q 619 199 562 134 q 594 93 645 36 l 578 -17 q 528 25 496 70 z m 351 460 q 423 497 454 535 q 475 562 475 589 q 475 618 455 637 q 436 657 407 657 q 373 657 347 630 q 321 602 321 564 q 321 518 351 460 z m 445 138 q 354 257 303 352 q 236 321 208 292 q 168 250 168 196 q 168 141 206 102 q 244 64 299 64 q 373 64 445 138 z"},"_":{"x_min":0,"x_max":556,"ha":556,"o":"m -63 -199 l -63 -135 l 519 -135 l 519 -199 z"},"v":{"x_min":0,"x_max":500,"ha":500,"o":"m 164 0 l 79 519 l 165 519 l 209 233 q 217 186 228 80 q 253 135 292 207 l 466 519 l 559 519 l 262 0 z"},"O":{"x_min":0,"x_max":778,"ha":778,"o":"m 91 300 q 91 491 202 610 q 312 728 470 728 q 604 728 688 641 q 772 554 772 407 q 772 303 730 213 q 698 146 650 98 q 602 49 546 23 q 473 -12 391 -12 q 305 -12 235 29 q 164 70 128 143 q 91 217 91 300 z m 186 295 q 186 232 212 179 q 238 126 290 97 q 341 67 398 67 q 454 67 503 93 q 553 119 593 166 q 632 212 655 281 q 677 349 677 415 q 677 521 617 585 q 558 648 470 648 q 357 648 271 552 q 186 457 186 295 z"},"(":{"x_min":0,"x_max":333,"ha":333,"o":"m 161 -210 q 84 -42 84 135 q 84 253 115 355 q 146 457 210 556 q 252 623 344 728 l 413 728 q 356 667 292 556 q 229 445 200 338 q 171 231 171 124 q 171 -38 227 -210 z"},"C":{"x_min":0,"x_max":722,"ha":722,"o":"m 603 252 l 698 239 q 653 115 567 51 q 481 -12 374 -12 q 244 -12 167 67 q 91 147 91 295 q 91 489 207 615 q 311 728 464 728 q 578 728 649 667 q 719 606 730 503 l 641 495 q 627 572 583 611 q 539 649 469 649 q 337 649 256 532 q 186 432 186 293 q 186 183 240 125 q 294 67 381 67 q 456 67 516 115 q 576 164 603 252 z"},"W":{"x_min":0,"x_max":944,"ha":944,"o":"m 169 0 l 125 716 l 222 716 l 239 362 q 240 336 244 224 q 245 193 245 180 q 245 172 244 132 q 304 254 330 304 l 548 716 l 646 716 l 670 297 q 674 226 676 125 q 685 149 707 199 q 743 278 760 312 l 964 716 l 1062 716 l 697 0 l 595 0 l 571 434 q 567 489 565 570 q 536 502 516 465 l 268 0 z"},"A":{"x_min":0,"x_max":667,"ha":667,"o":"m -20 0 l 386 716 l 499 716 l 617 0 l 524 0 l 489 206 l 200 206 l 85 0 z m 241 280 l 478 280 l 450 459 q 434 566 430 638 q 405 576 358 492 z"},"f":{"x_min":0,"x_max":278,"ha":278,"o":"m 45 0 l 140 450 l 61 450 l 75 519 l 154 519 l 169 592 q 181 647 193 672 q 206 696 234 712 q 262 728 310 728 q 344 728 408 714 l 392 637 q 347 648 316 648 q 291 648 277 635 q 264 623 254 574 l 242 519 l 341 519 l 327 450 l 228 450 l 134 0 z"},"Q":{"x_min":0,"x_max":778,"ha":778,"o":"m 604 58 q 641 15 702 -25 l 660 -82 q 595 -40 543 21 q 470 -13 404 -13 q 352 -13 289 7 q 226 27 183 67 q 141 108 116 172 q 92 235 92 312 q 92 406 128 491 q 158 562 205 613 q 253 664 310 691 q 384 728 471 728 q 605 728 689 641 q 773 554 773 407 q 773 299 729 208 q 684 117 604 58 z m 546 119 q 605 165 642 245 q 678 326 678 413 q 678 521 619 585 q 559 648 473 648 q 400 648 333 606 q 267 564 227 482 q 187 401 187 305 q 187 184 262 118 q 320 67 387 67 q 440 67 483 83 q 438 124 392 148 l 426 208 q 458 194 484 176 q 509 157 546 119 z"},"w":{"x_min":0,"x_max":722,"ha":722,"o":"m 132 0 l 78 519 l 163 519 l 186 286 l 195 155 q 196 140 198 96 q 213 146 223 172 q 233 199 256 248 l 379 519 l 476 519 l 493 259 q 497 200 498 102 q 522 167 577 283 l 688 519 l 777 519 l 523 0 l 432 0 l 412 304 q 410 333 409 415 q 389 362 362 302 l 225 0 z"},"-":{"x_min":0,"x_max":333,"ha":333,"o":"m 46 215 l 65 303 l 334 303 l 316 215 z"},"E":{"x_min":0,"x_max":667,"ha":667,"o":"m 45 0 l 195 716 l 711 716 l 694 634 l 273 634 l 227 412 l 637 412 l 620 330 l 209 330 l 158 81 l 608 81 l 591 0 z"},"s":{"x_min":0,"x_max":500,"ha":500,"o":"m 42 177 l 130 183 q 130 145 142 118 q 153 91 185 74 q 216 57 258 57 q 317 57 346 80 q 375 104 375 135 q 375 158 358 179 q 340 199 270 229 q 200 259 180 271 q 147 292 131 319 q 114 346 114 381 q 114 442 163 486 q 212 530 300 530 q 397 530 448 485 q 500 440 501 366 l 415 360 q 413 407 382 435 q 351 462 293 462 q 248 462 222 441 q 197 420 197 396 q 197 371 219 353 q 233 340 294 313 q 396 270 422 244 q 464 204 464 146 q 464 107 441 70 q 417 33 368 10 q 320 -12 254 -12 q 164 -12 101 33 q 38 77 42 177 z"},">":{"x_min":0,"x_max":584,"ha":584,"o":"m 564 313 l 90 110 l 90 198 l 465 354 l 90 508 l 90 595 l 564 395 z"},"l":{"x_min":0,"x_max":222,"ha":222,"o":"m 26 0 l 176 716 l 264 716 l 115 0 z"},"8":{"x_min":0,"x_max":556,"ha":556,"o":"m 226 394 q 186 416 166 450 q 146 484 146 524 q 146 589 192 644 q 255 719 362 719 q 456 719 510 668 q 564 618 564 544 q 564 492 535 450 q 506 408 443 383 q 486 356 505 326 q 529 287 529 234 q 529 138 461 62 q 393 -13 279 -13 q 189 -13 132 43 q 75 99 75 182 q 75 261 115 317 q 156 374 226 394 z m 232 520 q 232 474 262 446 q 292 418 343 418 q 404 418 442 455 q 479 492 479 545 q 479 591 450 619 q 420 648 369 648 q 330 648 297 630 q 264 612 248 581 q 232 550 232 520 z m 164 175 q 164 145 178 118 q 192 90 222 74 q 251 58 289 58 q 360 58 405 125 q 440 178 440 239 q 440 289 407 321 q 375 353 322 353 q 256 353 210 303 q 164 254 164 175 z"},"\\":{"x_min":0,"x_max":278,"ha":278,"o":"m 205 -12 l 85 728 l 153 728 l 273 -12 z"},"e":{"x_min":0,"x_max":556,"ha":556,"o":"m 414 176 l 500 167 q 481 104 415 46 q 348 -12 256 -12 q 198 -12 150 15 q 102 42 77 92 q 52 143 52 208 q 52 293 91 373 q 130 453 193 491 q 255 530 328 530 q 421 530 476 473 q 532 415 532 315 q 532 277 525 237 l 143 237 q 141 222 141 210 q 141 137 175 99 q 208 61 256 61 q 302 61 346 90 q 390 120 414 176 z m 157 305 l 448 305 q 449 318 449 324 q 449 391 416 426 q 382 461 330 461 q 273 461 227 422 q 180 383 157 305 z"},"b":{"x_min":0,"x_max":556,"ha":556,"o":"m 33 0 l 183 716 l 271 716 l 218 460 q 260 499 294 514 q 328 530 365 530 q 438 530 487 476 q 535 422 535 318 q 535 250 516 192 q 496 135 467 96 q 438 58 408 34 q 377 11 345 0 q 312 -12 283 -12 q 231 -12 192 15 q 153 42 131 98 l 111 0 z m 164 213 l 164 196 q 164 130 195 95 q 227 61 274 61 q 321 61 360 93 q 398 125 423 194 q 448 263 448 321 q 448 387 417 423 q 385 459 339 459 q 291 459 251 422 q 211 385 184 309 q 164 251 164 213 z"},"%":{"x_min":0,"x_max":889,"ha":889,"o":"m 140 -26 l 731 728 l 811 728 l 222 -26 z m 97 496 q 97 516 106 557 q 115 599 133 631 q 150 664 172 684 q 193 703 219 712 q 244 722 276 722 q 345 722 381 687 q 416 652 416 584 q 416 528 392 466 q 369 403 327 374 q 286 345 229 345 q 165 345 131 382 q 97 418 97 496 z m 172 479 q 172 438 188 421 q 203 404 229 404 q 260 404 285 428 q 310 452 324 504 q 339 557 339 595 q 339 627 322 645 q 306 663 279 663 q 250 663 227 640 q 203 617 188 568 q 172 519 172 479 z m 534 124 q 534 144 543 186 q 552 227 569 260 q 587 292 608 312 q 630 332 655 341 q 681 350 713 350 q 782 350 817 315 q 853 280 853 213 q 853 157 829 94 q 805 32 764 3 q 723 -26 665 -26 q 601 -26 567 10 q 534 46 534 124 z m 609 107 q 609 67 624 50 q 640 32 666 32 q 696 32 721 56 q 746 80 761 132 q 775 185 775 223 q 775 256 759 273 q 742 291 715 291 q 687 291 663 268 q 639 246 624 196 q 609 147 609 107 z"},"m":{"x_min":0,"x_max":833,"ha":833,"o":"m 33 0 l 141 519 l 229 519 l 211 433 q 261 488 300 509 q 338 530 384 530 q 432 530 465 505 q 497 479 507 433 q 547 482 591 506 q 634 530 683 530 q 748 530 780 500 q 812 469 812 413 q 812 389 801 334 l 731 0 l 643 0 l 714 343 q 724 385 724 403 q 724 428 708 443 q 691 458 662 458 q 623 458 582 434 q 541 410 518 371 q 495 332 478 251 l 425 0 l 337 0 l 410 350 q 418 386 418 401 q 418 426 402 442 q 386 458 361 458 q 323 458 282 434 q 241 410 215 367 q 189 324 172 245 l 121 0 z"},"#":{"x_min":0,"x_max":556,"ha":556,"o":"m 86 -12 l 129 196 l 46 196 l 46 269 l 144 269 l 180 446 l 46 446 l 46 519 l 194 519 l 237 728 l 310 728 l 268 519 l 421 519 l 464 728 l 538 728 l 495 519 l 580 519 l 580 446 l 480 446 l 444 269 l 580 269 l 580 196 l 429 196 l 387 -12 l 313 -12 l 355 196 l 202 196 l 160 -12 z m 217 269 l 370 269 l 407 446 l 253 446 z"},",":{"x_min":0,"x_max":278,"ha":278,"o":"m 54 0 l 75 100 l 176 100 l 158 13 q 141 -66 106 -103 q 71 -139 24 -145 l 32 -106 q 90 -90 109 0 z"},"n":{"x_min":0,"x_max":556,"ha":556,"o":"m 33 0 l 142 519 l 222 519 l 203 428 q 255 481 300 506 q 346 530 393 530 q 456 530 492 496 q 528 462 528 405 q 528 376 515 314 l 449 0 l 361 0 l 430 329 q 440 376 440 399 q 440 425 422 441 q 404 458 371 458 q 303 458 250 409 q 197 360 172 241 l 122 0 z"},"h":{"x_min":0,"x_max":556,"ha":556,"o":"m 33 0 l 183 716 l 271 716 l 214 441 q 263 489 306 510 q 348 530 393 530 q 458 530 493 496 q 529 462 529 407 q 529 379 513 306 l 449 0 l 361 0 l 427 314 q 441 382 441 400 q 441 425 423 441 q 406 458 373 458 q 325 458 281 432 q 238 407 213 364 q 188 320 168 223 l 122 0 z"},"z":{"x_min":0,"x_max":500,"ha":500,"o":"m 20 0 l 34 68 l 312 382 q 342 416 379 451 q 316 445 289 445 l 96 445 l 111 519 l 512 519 l 500 463 l 219 147 q 195 120 148 73 q 222 78 249 78 l 453 78 l 437 0 z"},"B":{"x_min":0,"x_max":667,"ha":667,"o":"m 43 0 l 193 716 l 415 716 q 476 716 505 711 q 553 703 586 682 q 619 661 637 625 q 655 589 655 546 q 655 487 622 442 q 590 397 523 374 q 581 354 610 316 q 639 278 639 227 q 639 167 605 113 q 571 59 515 30 q 459 0 390 0 z m 225 410 l 370 410 q 474 410 520 443 q 565 477 565 540 q 565 570 551 592 q 537 614 513 624 q 490 634 424 634 l 272 634 z m 156 81 l 319 81 q 384 81 407 85 q 452 93 480 112 q 509 131 525 162 q 541 192 541 226 q 541 276 510 302 q 478 329 390 329 l 208 329 z"},"K":{"x_min":0,"x_max":667,"ha":667,"o":"m 44 0 l 194 716 l 290 716 l 218 371 l 606 716 l 741 716 l 409 424 l 652 0 l 545 0 l 339 363 l 189 232 l 140 0 z"},"R":{"x_min":0,"x_max":722,"ha":722,"o":"m 47 0 l 197 716 l 497 716 q 586 716 632 701 q 678 686 704 645 q 730 604 730 542 q 730 454 673 396 q 616 339 488 322 q 527 293 547 265 q 592 202 620 135 l 674 0 l 567 0 l 516 133 q 488 206 453 258 q 428 295 403 306 q 377 318 320 318 l 209 318 l 143 0 z m 225 396 l 357 396 q 449 396 477 398 q 531 403 566 422 q 601 441 620 474 q 639 506 639 543 q 639 574 625 597 q 610 621 587 629 q 564 637 509 637 l 276 637 z"},"T":{"x_min":0,"x_max":611,"ha":611,"o":"m 227 0 l 359 634 l 125 634 l 142 716 l 705 716 l 688 634 l 455 634 l 323 0 z"},"P":{"x_min":0,"x_max":667,"ha":667,"o":"m 43 0 l 193 716 l 492 716 q 569 716 608 698 q 647 680 672 637 q 698 594 698 540 q 698 496 680 450 q 662 404 634 374 q 606 344 578 329 q 550 314 518 307 q 449 291 378 291 l 199 291 l 139 0 z m 216 372 l 374 372 q 466 372 509 391 q 552 411 578 452 q 604 492 604 538 q 604 573 590 595 q 576 617 551 628 q 526 638 456 638 l 272 638 z"},"|":{"x_min":0,"x_max":260,"ha":260,"o":"m 92 -210 l 92 728 l 168 728 l 168 -210 z"},"t":{"x_min":0,"x_max":278,"ha":278,"o":"m 240 72 l 225 0 q 193 -9 164 -9 q 111 -9 80 17 q 56 37 56 70 q 56 87 69 149 l 132 450 l 62 450 l 76 519 l 146 519 l 173 646 l 274 707 l 234 519 l 321 519 l 307 450 l 220 450 l 160 164 q 149 109 149 98 q 149 83 158 74 q 167 66 188 66 q 217 66 240 72 z"},"M":{"x_min":0,"x_max":833,"ha":833,"o":"m 44 0 l 193 716 l 311 716 l 383 252 q 397 161 402 77 q 432 149 501 272 l 752 716 l 872 716 l 723 0 l 628 0 l 703 348 q 729 469 777 619 q 747 549 701 468 l 435 0 l 342 0 l 271 459 q 261 522 256 606 q 244 512 232 457 l 137 0 z"},"g":{"x_min":0,"x_max":556,"ha":556,"o":"m 28 -47 l 118 -55 q 117 -85 125 -101 q 133 -116 151 -124 q 175 -135 213 -135 q 293 -135 329 -93 q 352 -65 371 28 l 380 70 q 311 0 233 0 q 155 0 102 58 q 49 116 49 222 q 49 309 91 382 q 132 456 190 493 q 248 530 309 530 q 411 530 466 434 l 483 519 l 564 519 l 460 18 q 443 -64 415 -111 q 387 -157 338 -182 q 288 -208 223 -208 q 161 -208 115 -191 q 70 -175 48 -144 q 26 -113 26 -73 q 26 -61 28 -47 z m 139 229 q 139 176 149 149 q 164 112 191 92 q 218 72 251 72 q 294 72 337 103 q 380 133 407 197 q 434 261 434 319 q 434 383 398 421 q 363 459 311 459 q 278 459 248 442 q 218 424 192 389 q 166 354 152 304 q 139 255 139 229 z"},"j":{"x_min":0,"x_max":222,"ha":222,"o":"m 159 616 l 180 716 l 267 716 l 246 616 z m -121 -195 l -105 -120 q -75 -128 -52 -128 q -23 -128 -7 -109 q 10 -90 28 -5 l 137 519 l 226 519 l 113 -21 q 92 -122 65 -159 q 28 -208 -37 -208 q -72 -208 -121 -195 z"},"i":{"x_min":0,"x_max":222,"ha":222,"o":"m 159 616 l 180 716 l 268 716 l 247 616 z m 30 0 l 138 519 l 227 519 l 118 0 z"},"y":{"x_min":0,"x_max":500,"ha":500,"o":"m 0 -200 l 5 -117 q 33 -125 59 -125 q 85 -125 102 -113 q 124 -97 149 -52 l 177 -1 l 91 519 l 178 519 l 217 256 q 229 179 237 101 l 469 519 l 561 519 l 230 -69 q 183 -155 146 -183 q 108 -210 60 -210 q 29 -210 0 -200 z"},"@":{"x_min":0,"x_max":1015,"ha":1015,"o":"m 567 80 q 535 43 496 21 q 457 -1 417 -1 q 374 -1 333 24 q 292 49 266 102 q 240 155 240 218 q 240 295 280 373 q 320 451 379 490 q 438 529 494 529 q 536 529 575 507 q 613 485 641 439 l 658 515 l 745 515 l 675 188 q 660 119 660 112 q 660 99 670 89 q 680 80 694 80 q 720 80 762 109 q 818 148 850 214 q 883 280 883 350 q 883 431 841 502 q 799 573 717 615 q 634 658 534 658 q 419 658 325 604 q 230 551 178 451 q 126 351 126 237 q 126 117 178 31 q 230 -56 329 -97 q 427 -138 547 -138 q 675 -138 761 -95 q 848 -52 891 9 l 979 9 q 954 -42 894 -95 q 833 -148 750 -179 q 666 -210 548 -210 q 440 -210 348 -183 q 257 -155 192 -99 q 128 -43 95 30 q 54 122 54 229 q 54 348 103 456 q 163 588 272 659 q 382 729 538 729 q 659 729 756 679 q 852 630 908 532 q 955 447 955 348 q 955 207 855 97 q 767 -2 661 -2 q 627 -2 607 8 q 586 19 576 38 q 570 50 567 80 z m 331 212 q 331 145 362 108 q 394 71 435 71 q 462 71 493 87 q 523 104 551 136 q 578 168 596 218 q 613 267 613 317 q 613 383 580 420 q 547 457 500 457 q 469 457 441 441 q 414 425 388 390 q 362 354 346 304 q 331 254 331 212 z"},".":{"x_min":0,"x_max":278,"ha":278,"o":"m 58 0 l 79 100 l 179 100 l 157 0 z"},"p":{"x_min":0,"x_max":556,"ha":556,"o":"m -10 -199 l 140 519 l 221 519 l 206 446 q 251 494 287 512 q 323 530 363 530 q 438 530 486 476 q 535 422 535 322 q 535 241 508 174 q 481 107 442 67 q 403 26 363 7 q 323 -12 281 -12 q 188 -12 137 83 l 78 -199 z m 165 212 q 165 154 173 131 q 185 100 213 80 q 241 61 277 61 q 354 61 400 146 q 447 232 447 321 q 447 387 416 423 q 384 459 337 459 q 304 459 275 441 q 246 423 221 388 q 197 353 181 301 q 165 250 165 212 z"},"X":{"x_min":0,"x_max":667,"ha":667,"o":"m -32 0 l 310 362 l 107 716 l 213 716 l 305 554 q 342 490 347 479 q 360 455 375 422 q 411 471 487 550 l 644 716 l 769 716 l 423 346 l 619 0 l 515 0 l 399 209 q 382 240 359 289 q 333 253 295 213 l 95 0 z"},"*":{"x_min":0,"x_max":389,"ha":389,"o":"m 115 584 l 138 654 q 215 626 250 606 q 241 695 241 728 l 312 728 q 310 680 300 607 q 351 632 416 654 l 438 584 q 376 564 316 557 q 346 531 400 465 l 342 423 q 313 462 275 528 q 239 459 211 423 l 154 465 q 210 535 235 557 q 172 569 115 584 z"},"Y":{"x_min":0,"x_max":667,"ha":667,"o":"m 279 0 l 337 277 l 117 716 l 219 716 l 325 507 q 359 438 392 360 q 428 427 491 505 l 659 716 l 773 716 l 431 270 l 375 0 z"},"c":{"x_min":0,"x_max":500,"ha":500,"o":"m 391 189 l 479 180 q 446 83 385 35 q 324 -12 246 -12 q 161 -12 109 43 q 56 98 56 196 q 56 281 90 363 q 124 445 186 488 q 249 530 330 530 q 413 530 462 483 q 511 436 511 358 l 424 353 q 423 402 395 430 q 367 458 321 458 q 268 458 229 424 q 190 390 168 322 q 146 253 146 189 q 146 123 175 90 q 204 57 247 57 q 290 57 329 89 q 369 122 391 189 z"},"!":{"x_min":0,"x_max":278,"ha":278,"o":"m 112 181 l 166 569 l 197 716 l 304 716 l 271 557 l 167 181 z m 56 0 l 77 100 l 177 100 l 156 0 z"},"/":{"x_min":0,"x_max":278,"ha":278,"o":"m -51 -12 l 334 728 l 411 728 l 26 -12 z"},"[":{"x_min":0,"x_max":278,"ha":278,"o":"m 6 -196 l 194 716 l 391 716 l 377 648 l 270 648 l 108 -128 l 216 -128 l 202 -196 z"},"6":{"x_min":0,"x_max":556,"ha":556,"o":"m 201 415 q 238 446 275 461 q 312 477 348 477 q 430 477 483 421 q 536 365 536 271 q 536 149 457 62 q 389 -12 291 -12 q 202 -12 143 53 q 83 118 83 239 q 83 347 122 462 q 151 550 194 608 q 237 665 286 692 q 334 719 396 719 q 469 719 515 673 q 562 627 568 542 l 486 535 q 479 593 453 619 q 427 645 389 645 q 350 645 310 614 q 270 583 241 523 q 212 462 201 415 z m 170 201 q 170 141 208 99 q 246 58 293 58 q 326 58 363 83 q 400 108 426 160 q 452 211 452 262 q 452 327 416 366 q 380 406 330 406 q 271 406 221 348 q 170 291 170 201 z"},"r":{"x_min":0,"x_max":333,"ha":333,"o":"m 33 0 l 142 519 l 220 519 l 198 413 q 238 473 276 501 q 314 530 354 530 q 381 530 419 511 l 383 429 q 360 446 333 446 q 287 446 238 394 q 189 342 161 208 l 117 0 z"},"2":{"x_min":0,"x_max":556,"ha":556,"o":"m 59 0 q 72 64 96 107 q 121 150 161 189 q 201 228 315 319 q 384 375 410 401 q 446 439 463 476 q 474 500 474 530 q 474 579 439 614 q 404 648 354 648 q 303 648 266 613 q 228 578 212 501 l 125 514 q 138 609 199 664 q 261 719 352 719 q 413 719 463 693 q 512 668 537 622 q 562 576 562 527 q 562 456 511 390 q 480 349 328 229 q 262 177 230 144 q 198 110 182 81 l 502 81 l 485 0 z"},"{":{"x_min":0,"x_max":334,"ha":334,"o":"m 69 299 q 107 300 135 319 q 163 338 180 377 q 194 407 212 488 q 229 569 239 599 q 252 639 271 664 q 289 689 310 703 q 331 717 361 724 q 378 728 418 728 l 445 728 l 429 651 l 414 651 q 372 651 354 641 q 335 631 326 610 q 316 588 300 515 q 279 418 262 376 q 244 333 218 306 q 191 280 142 259 q 177 243 194 215 q 211 188 211 142 q 211 104 189 3 q 173 -68 173 -87 q 173 -105 181 -116 q 186 -125 199 -129 q 213 -134 258 -134 l 242 -210 l 215 -210 q 169 -210 150 -204 q 122 -194 106 -171 q 90 -148 90 -110 q 90 -77 112 30 q 129 110 129 139 q 129 178 110 198 q 90 218 52 219 z"},"9":{"x_min":0,"x_max":556,"ha":556,"o":"m 67 164 l 150 172 q 159 112 185 87 q 210 62 246 62 q 297 62 340 105 q 404 170 435 291 q 390 257 356 243 q 321 229 285 229 q 220 229 168 273 q 100 330 100 437 q 100 558 179 645 q 247 719 345 719 q 434 719 493 653 q 551 587 551 467 q 551 351 512 237 q 466 103 387 40 q 322 -12 242 -12 q 167 -12 120 34 q 73 80 67 164 z m 185 447 q 185 380 221 340 q 257 300 306 300 q 343 300 379 325 q 415 350 441 399 q 467 449 467 501 q 467 542 450 577 q 433 612 403 630 q 374 648 343 648 q 314 648 286 632 q 257 617 233 586 q 209 556 197 517 q 185 478 185 447 z"}," ":{"x_min":0,"x_max":278,"ha":278,"o":""},"I":{"x_min":0,"x_max":278,"ha":278,"o":"m 57 0 l 207 716 l 302 716 l 153 0 z"},"H":{"x_min":0,"x_max":722,"ha":722,"o":"m 42 0 l 192 716 l 287 716 l 225 418 l 596 418 l 658 716 l 754 716 l 604 0 l 509 0 l 579 337 l 208 337 l 138 0 z"},"4":{"x_min":0,"x_max":556,"ha":556,"o":"m 299 0 l 337 183 l 45 183 l 64 270 l 465 716 l 537 716 l 442 261 l 542 261 l 526 183 l 426 183 l 387 0 z m 354 261 l 416 560 l 149 261 z"},"~":{"x_min":0,"x_max":584,"ha":584,"o":"m 80 272 l 80 372 q 132 431 216 431 q 245 431 277 422 q 310 414 369 388 q 403 374 420 370 q 437 365 454 365 q 485 365 519 384 q 553 403 580 432 l 580 329 q 548 299 516 286 q 484 273 444 273 q 415 273 388 280 q 362 287 304 312 q 246 338 208 338 q 176 338 149 325 q 121 312 80 272 z"},"D":{"x_min":0,"x_max":722,"ha":722,"o":"m 44 0 l 194 716 l 410 716 q 487 716 528 705 q 587 689 628 651 q 670 612 691 554 q 712 496 712 423 q 712 337 686 266 q 660 195 617 141 q 575 87 529 56 q 483 26 420 11 q 372 0 302 0 z m 157 81 l 271 81 q 347 81 407 95 q 444 104 470 121 q 505 143 533 179 q 570 227 593 288 q 615 350 615 428 q 615 515 584 561 q 554 608 507 623 q 473 634 399 634 l 273 634 z"},"^":{"x_min":0,"x_max":469,"ha":469,"o":"m 161 337 l 70 337 l 243 728 l 313 728 l 487 337 l 398 337 l 278 628 z"},"0":{"x_min":0,"x_max":556,"ha":556,"o":"m 71 235 q 71 326 98 419 q 125 513 158 569 q 191 625 227 657 q 263 689 297 704 q 332 719 374 719 q 456 719 510 658 q 565 597 565 481 q 565 363 527 247 q 482 109 402 40 q 341 -12 262 -12 q 182 -12 126 51 q 71 114 71 235 z m 156 212 q 156 146 178 109 q 208 58 267 58 q 318 58 360 104 q 420 170 451 296 q 481 422 481 502 q 481 580 452 614 q 422 648 374 648 q 339 648 308 630 q 278 612 250 568 q 210 506 181 382 q 156 277 156 212 z"},"F":{"x_min":0,"x_max":611,"ha":611,"o":"m 45 0 l 195 716 l 660 716 l 643 634 l 273 634 l 226 406 l 603 406 l 585 325 l 209 325 l 141 0 z"},"`":{"x_min":0,"x_max":333,"ha":333,"o":"m 241 582 l 146 716 l 253 716 l 310 582 z"},"k":{"x_min":0,"x_max":500,"ha":500,"o":"m 34 0 l 184 716 l 272 716 l 179 272 l 437 519 l 554 519 l 333 325 l 466 0 l 370 0 l 266 266 l 159 173 l 123 0 z"},"u":{"x_min":0,"x_max":556,"ha":556,"o":"m 387 94 q 294 -12 196 -12 q 136 -12 99 23 q 62 57 62 107 q 62 140 79 219 l 142 519 l 230 519 l 161 187 q 152 146 152 123 q 152 93 170 77 q 188 61 222 61 q 259 61 295 79 q 330 97 356 127 q 381 158 397 200 q 408 227 422 294 l 469 519 l 558 519 l 449 0 l 368 0 z"},"]":{"x_min":0,"x_max":278,"ha":278,"o":"m 137 -196 l -59 -196 l -44 -128 l 63 -128 l 226 648 l 118 648 l 132 716 l 329 716 z"},"U":{"x_min":0,"x_max":722,"ha":722,"o":"m 198 716 l 294 716 l 202 276 q 191 221 191 195 q 191 137 236 102 q 282 67 351 67 q 405 67 452 92 q 500 117 527 166 q 554 215 576 322 l 659 716 l 754 716 l 667 296 q 645 188 608 126 q 571 63 506 25 q 441 -13 355 -13 q 274 -13 215 14 q 156 41 126 88 q 97 136 97 196 q 97 233 117 325 z"},"o":{"x_min":0,"x_max":556,"ha":556,"o":"m 49 197 q 49 349 138 448 q 212 530 332 530 q 425 530 483 472 q 540 413 540 313 q 540 224 504 147 q 468 70 401 29 q 334 -12 261 -12 q 200 -12 151 14 q 101 40 75 87 q 49 135 49 197 z m 137 206 q 137 132 172 94 q 208 57 262 57 q 290 57 318 68 q 346 80 370 103 q 394 126 410 156 q 427 187 438 221 q 453 270 453 314 q 453 384 417 423 q 382 462 328 462 q 287 462 252 442 q 218 422 191 384 q 163 346 150 296 q 137 245 137 206 z"},"N":{"x_min":0,"x_max":722,"ha":722,"o":"m 49 0 l 199 716 l 292 716 l 412 447 q 467 324 500 240 q 518 191 542 108 q 556 199 576 295 l 664 716 l 757 716 l 607 0 l 513 0 l 335 414 q 288 523 261 606 q 254 537 233 435 l 142 0 z"},"+":{"x_min":0,"x_max":584,"ha":584,"o":"m 285 116 l 285 312 l 90 312 l 90 394 l 285 394 l 285 589 l 368 589 l 368 394 l 562 394 l 562 312 l 368 312 l 368 116 z"},"G":{"x_min":0,"x_max":778,"ha":778,"o":"m 410 282 l 427 363 l 740 363 l 679 72 q 620 35 544 11 q 469 -12 396 -12 q 239 -12 162 82 q 97 162 97 287 q 97 416 154 521 q 211 627 298 677 q 384 728 490 728 q 566 728 627 700 q 688 673 720 627 q 752 581 766 506 l 672 496 q 657 570 610 609 q 562 648 487 648 q 410 648 342 606 q 275 564 235 479 q 194 394 194 285 q 194 177 248 122 q 301 67 395 67 q 488 67 595 128 l 627 282 z"},"q":{"x_min":0,"x_max":556,"ha":556,"o":"m 368 59 q 292 -12 223 -12 q 151 -12 101 43 q 51 98 51 199 q 51 296 89 374 q 127 452 186 491 q 245 530 307 530 q 354 530 393 504 q 432 477 456 423 l 476 519 l 552 519 l 403 -199 l 314 -199 z m 139 211 q 139 134 170 97 q 202 61 250 61 q 290 61 330 94 q 371 127 397 193 q 423 260 423 322 q 423 385 391 421 q 358 458 311 458 q 264 458 229 427 q 184 388 158 314 q 139 258 139 211 z"},"d":{"x_min":0,"x_max":556,"ha":556,"o":"m 383 75 q 307 -12 225 -12 q 151 -12 102 43 q 53 97 53 201 q 53 295 92 374 q 130 452 189 491 q 247 530 306 530 q 402 530 452 437 l 510 716 l 598 716 l 449 0 l 367 0 z m 141 217 q 141 163 151 132 q 162 101 188 80 q 214 59 250 59 q 310 59 359 122 q 424 205 424 327 q 424 388 392 423 q 360 458 311 458 q 279 458 253 443 q 227 429 201 395 q 176 361 158 309 q 141 257 141 217 z"},"1":{"x_min":0,"x_max":556,"ha":556,"o":"m 241 0 l 354 541 q 281 483 148 448 l 165 528 q 230 555 295 597 q 359 640 391 671 q 411 691 428 719 l 479 719 l 330 0 z"},"5":{"x_min":0,"x_max":556,"ha":556,"o":"m 70 205 l 160 213 q 159 194 159 190 q 159 158 175 125 q 191 93 219 75 q 248 58 279 58 q 320 58 362 86 q 405 115 431 169 q 458 223 458 276 q 458 336 422 373 q 387 409 329 409 q 291 409 256 390 q 222 372 192 334 l 115 340 l 223 706 l 572 706 l 555 625 l 283 625 l 229 443 q 260 465 292 476 q 324 487 357 487 q 439 487 492 433 q 545 378 545 284 q 545 202 509 132 q 473 62 409 25 q 346 -12 273 -12 q 211 -12 164 16 q 117 43 93 92 q 69 141 69 190 q 69 195 70 205 z"}}}
